<?xml version="1.0" encoding="UTF-8"?>
<svg width="70px" height="34px" viewBox="0 0 70 34" version="1.1" xmlns="http://www.w3.org/2000/svg" xmlns:xlink="http://www.w3.org/1999/xlink">
    <!-- Generator: Sketch 43.2 (39069) - http://www.bohemiancoding.com/sketch -->
    <title>russellprivett</title>
    <desc>Created with Sketch.</desc>
    <defs>
        <path d="M53.3278255,33.3728494 C62.2450364,33.3728494 69.5002242,26.1455085 69.5002242,17.2609861 C69.5002242,8.37716727 62.2450364,1.14982848 53.3278255,1.14982848 C53.1147691,1.14982848 52.9037939,1.15745273 52.6928291,1.16577758 C52.7137133,1.16994 52.7332067,1.17688424 52.7541012,1.18173697 C52.2778436,1.19838667 51.8078606,1.23583818 51.3434412,1.29203091 C51.3246485,1.2899497 51.3065358,1.28509697 51.2870424,1.28231515 C51.1477867,1.30035576 51.0127139,1.33087333 50.8741485,1.35168545 C50.8637115,1.35307636 50.8532642,1.35515758 50.8421267,1.35722848 C50.5413297,1.40301515 50.2384515,1.44463939 49.9432285,1.50775576 C49.9529855,1.51053758 49.9620315,1.51399939 49.9717782,1.51747152 C49.737137,1.56672 49.5038867,1.61944061 49.2734182,1.67840485 C49.2643618,1.67632364 49.2553158,1.67285152 49.2462594,1.67008 C48.70874,1.81020121 48.1823479,1.97806848 47.6678042,2.1702097 C47.6740685,2.17299152 47.6789418,2.17576303 47.6852061,2.17853455 C47.5292491,2.23610788 47.3760636,2.29785394 47.2228782,2.3595897 C47.2173145,2.35750848 47.2117406,2.35472667 47.206177,2.35195515 C46.6240867,2.58988303 46.0594085,2.85971939 45.5142236,3.16077394 C45.5177061,3.16354545 45.5211885,3.16562667 45.5253612,3.16840848 C45.4076903,3.23291576 45.2921109,3.30020485 45.1765315,3.36818424 C45.1723485,3.36540242 45.1688661,3.36332121 45.1653836,3.36124 C44.68008,3.64495455 44.2156709,3.96057758 43.7644806,4.2921497 C43.71992,4.32405818 43.6753594,4.35596667 43.6307988,4.38856545 C43.5569879,4.44405758 43.4790042,4.49539758 43.4059042,4.55158 C43.4086861,4.55435152 43.4114679,4.55643273 43.41426,4.55851394 C43.3195648,4.63135636 43.2248697,4.70418848 43.1322661,4.77910182 C43.1301745,4.77702061 43.1273927,4.77424909 43.1246006,4.77216788 C42.9630697,4.90396424 42.8119758,5.04685697 42.6553182,5.18489697 C42.5794158,5.25149576 42.5014424,5.31669333 42.4269309,5.38467273 C42.2654,5.53242848 42.1066509,5.68295576 41.9506836,5.83695515 C41.8810558,5.90631515 41.8135194,5.97707636 41.7452824,6.04782727 C41.6018539,6.19488242 41.4521509,6.33639455 41.3142861,6.48830242 C41.3163776,6.49108424 41.3184691,6.49385576 41.3205503,6.49662727 C41.2418764,6.58333758 41.1666745,6.67281939 41.0907824,6.76092061 C41.0880006,6.75883939 41.0866097,6.75605758 41.0845182,6.75328606 C41.0413485,6.80253455 41.0058339,6.85664606 40.9640655,6.90658485 C40.7140933,7.20278667 40.4752794,7.50800364 40.2468921,7.82153515 C40.1619539,7.93807273 40.0777061,8.0546103 39.99624,8.17322909 C39.782483,8.48329879 39.5812545,8.80238364 39.389783,9.12772242 C39.3438315,9.20540727 39.2888236,9.27754909 39.244263,9.35593455 C39.2463442,9.36009697 39.2484358,9.36425939 39.2505273,9.36842182 C39.1829909,9.48842121 39.1154442,9.60912121 39.0499994,9.73121212 C39.0479079,9.72635939 39.0458164,9.72219697 39.0437352,9.71803455 C37.9638127,11.7386855 37.3016473,14.0125333 37.1770218,16.427203 C37.1825855,16.537497 37.1825855,16.6491715 37.1860679,16.7601661 C37.1804939,16.9266424 37.1728388,17.0931188 37.1728388,17.2609861 C37.1728388,17.4295539 37.1804939,17.59534 37.1860679,17.762517 C37.1825855,17.8735012 37.1825855,17.9851861 37.1770218,18.09548 C37.3016473,20.5101394 37.9638127,22.7839873 39.0437352,24.8046454 C39.0458164,24.800483 39.0479079,24.7956282 39.0499994,24.7914658 C39.1154442,24.9135515 39.1829909,25.0342505 39.2505273,25.154255 C39.2484358,25.1584164 39.2463442,25.1625788 39.244263,25.1667413 C39.2895139,25.2451257 39.3438315,25.3172675 39.389783,25.3956519 C39.5812545,25.7202891 39.782483,26.039377 39.9955394,26.3494467 C40.0777061,26.4680645 40.1626442,26.584601 40.2475927,26.701831 C40.4759697,27.0146763 40.7140933,27.3198902 40.9633648,27.6153935 C41.0058339,27.6653374 41.0413485,27.7201382 41.0845182,27.7693887 C41.0866097,27.7666141 41.0880006,27.7638385 41.0907824,27.7617583 C41.1666745,27.8498544 41.2425667,27.9393372 41.3205503,28.0260455 C41.3184691,28.0288211 41.3163776,28.0315957 41.3142861,28.0336759 C41.4528412,28.1869778 41.6032448,28.3291792 41.7473739,28.4769308 C41.8149103,28.546298 41.8817564,28.617052 41.9506836,28.6850314 C42.1066509,28.8390267 42.2654,28.9902463 42.4276315,29.1379979 C42.5014424,29.2052839 42.5773345,29.2697953 42.6525261,29.3356935 C42.8098842,29.4737335 42.9616788,29.6180172 43.1246006,29.7505079 C43.1273927,29.7484267 43.1301745,29.7456521 43.1329564,29.7435709 C43.2248697,29.8184873 43.3195648,29.8906292 43.41426,29.9641578 C43.4114679,29.966239 43.4086861,29.9683202 43.4059042,29.9704014 C43.4797048,30.0272824 43.5576885,30.0786141 43.6314891,30.1341073 C43.6746588,30.1667092 43.7185291,30.1972308 43.7616988,30.2291404 C44.21428,30.5607135 44.6786891,30.8770268 45.1653836,31.1614317 C45.1688661,31.1593505 45.1723485,31.1565759 45.1765315,31.1544947 C45.2921109,31.2224741 45.4076903,31.2897601 45.5253612,31.3542715 C45.5211885,31.3563527 45.5177061,31.3591273 45.5142236,31.3612085 C46.0594085,31.6629544 46.6240867,31.9327918 47.206177,32.1707207 C47.2117406,32.1679461 47.2173145,32.1651715 47.2228782,32.1630902 C47.3760636,32.224827 47.5292491,32.2865628 47.6852061,32.3441382 C47.6789418,32.3469128 47.6740685,32.3496874 47.6678042,32.352462 C48.1823479,32.5446084 48.70874,32.7124767 49.2462594,32.8519035 C49.2560061,32.8498222 49.2643618,32.8463542 49.2734182,32.844273 C49.5038867,32.9032352 49.737137,32.9559538 49.9717782,33.0052047 C49.9620315,33.0079793 49.9529855,33.0121413 49.9432285,33.014916 C50.2398424,33.0780399 50.5441218,33.1203538 50.8462994,33.166136 C50.8553558,33.1675233 50.8644018,33.1696043 50.8727576,33.1709917 C51.0120133,33.1918018 51.1470964,33.2223232 51.2870424,33.2403586 C51.3065358,33.2375839 51.3246485,33.2327282 51.3434412,33.2299536 C51.8078606,33.2868344 52.2785442,33.3242926 52.7541012,33.3409407 C52.7332067,33.3457963 52.7137133,33.352733 52.6928291,33.356895 C52.9037939,33.3652191 53.1147691,33.3728494 53.3278255,33.3728494 Z M49.24696,33.3728494 C49.4593261,33.3728494 49.6702909,33.3652191 49.8812661,33.356895 C49.6681994,33.3118065 49.4565339,33.2639434 49.2462594,33.2105308 C49.0366855,33.2639434 48.8243194,33.3118065 48.6119533,33.356895 C48.8229285,33.3652191 49.0338933,33.3728494 49.24696,33.3728494 Z M47.206177,33.2403586 C47.6601491,33.182784 48.1085473,33.1092551 48.5499806,33.014916 C48.0925364,32.8775693 47.6455188,32.7187193 47.206177,32.5432205 C46.7668248,32.7187193 46.319117,32.8775693 45.862363,33.014916 C46.3037964,33.1092551 46.7522048,33.182784 47.206177,33.2403586 Z M45.1653836,33.3728494 C45.3784503,33.3728494 45.5894255,33.3652191 45.8003903,33.356895 C45.5873339,33.3118065 45.3756685,33.2639434 45.1653836,33.2105308 C44.9558097,33.2639434 44.7434436,33.3118065 44.5303873,33.356895 C44.7413521,33.3652191 44.9523273,33.3728494 45.1653836,33.3728494 Z M43.1246006,33.2403586 C43.5785727,33.182784 44.0269812,33.1092551 44.4684145,33.014916 C44.0116606,32.8775693 43.5639527,32.7187193 43.1246006,32.5432205 C42.6852588,32.7187193 42.2382412,32.8775693 41.780797,33.014916 C42.2222303,33.1092551 42.6706285,33.182784 43.1246006,33.2403586 Z M41.0845182,33.3728494 C41.2968842,33.3728494 41.5078491,33.3652191 41.7188242,33.356895 C41.5064582,33.3118065 41.2940921,33.2639434 41.0845182,33.2105308 C40.8742436,33.2639434 40.6625782,33.3118065 40.4495115,33.356895 C40.6604867,33.3652191 40.8714515,33.3728494 41.0845182,33.3728494 Z M39.0437352,33.2403586 C39.4977073,33.182784 39.9461055,33.1092551 40.3875491,33.014916 C39.9307848,32.8775693 39.4830873,32.7187193 39.0437352,32.5432205 C38.604383,32.7187193 38.1566752,32.8775693 37.6999212,33.014916 C38.1413545,33.1092551 38.589763,33.182784 39.0437352,33.2403586 Z M37.0029521,33.3728494 C37.2160085,33.3728494 37.4269836,33.3652191 37.6379485,33.356895 C37.4248921,33.3118065 37.2132267,33.2639434 37.0029521,33.2105308 C36.7933679,33.2639434 36.5810018,33.3118065 36.3679455,33.356895 C36.5789206,33.3652191 36.7898855,33.3728494 37.0029521,33.3728494 Z M34.9628594,33.2403586 C35.4161309,33.182784 35.8645394,33.1092551 36.3059727,33.014916 C35.8492188,32.8775693 35.4015109,32.7187193 34.9621588,32.5432205 C34.522817,32.7187193 34.0758097,32.8775693 33.6183552,33.014916 C34.0597885,33.1092551 34.5088873,33.182784 34.9628594,33.2403586 Z M32.9220764,33.3728494 C33.1351327,33.3728494 33.3461079,33.3652191 33.557083,33.356895 C33.3440164,33.3118065 33.1316503,33.2639434 32.9220764,33.2105308 C32.7118018,33.2639434 32.5001364,33.3118065 32.2870697,33.356895 C32.4980448,33.3652191 32.70902,33.3728494 32.9220764,33.3728494 Z M30.8812933,33.2403586 C31.3352655,33.182784 31.7836636,33.1092551 32.2251073,33.014916 C31.768343,32.8775693 31.3206455,32.7187193 30.8812933,32.5432205 C30.4419412,32.7187193 29.9942333,32.8775693 29.5374794,33.014916 C29.978923,33.1092551 30.4273212,33.182784 30.8812933,33.2403586 Z M28.8405103,33.3728494 C29.0535667,33.3728494 29.2645418,33.3652191 29.4755067,33.356895 C29.2624503,33.3118065 29.0507848,33.2639434 28.8405103,33.2105308 C28.6309261,33.2639434 28.41856,33.3118065 28.2055036,33.356895 C28.4164788,33.3652191 28.6274436,33.3728494 28.8405103,33.3728494 Z M26.7997273,33.2403586 C27.2536994,33.182784 27.7020976,33.1092551 28.1442315,33.014916 C27.686777,32.8775693 27.2397697,32.7187193 26.8004176,32.5432205 C26.3610655,32.7187193 25.9133679,32.8775693 25.4566036,33.014916 C25.8973467,33.1092551 26.3464455,33.182784 26.7997273,33.2403586 Z M24.7596345,33.3728494 C24.9726909,33.3728494 25.1836661,33.3652191 25.3946412,33.356895 C25.1815745,33.3118065 24.9692188,33.2639434 24.7596345,33.2105308 C24.54936,33.2639434 24.3376945,33.3118065 24.1246279,33.356895 C24.335603,33.3652191 24.5465782,33.3728494 24.7596345,33.3728494 Z M22.7188515,33.2403586 C23.1728236,33.182784 23.6212218,33.1092551 24.0626655,33.014916 C23.6059012,32.8775693 23.1582036,32.7187193 22.7188515,32.5432205 C22.2794994,32.7187193 21.8317915,32.8775693 21.3750376,33.014916 C21.8164812,33.1092551 22.2648794,33.182784 22.7188515,33.2403586 Z M20.6780685,33.3728494 C20.8911248,33.3728494 21.1021,33.3652191 21.3130752,33.356895 C21.1000085,33.3118065 20.888343,33.2639434 20.6780685,33.2105308 C20.4684842,33.2639434 20.2561285,33.3118065 20.0430618,33.356895 C20.254037,33.3652191 20.4657024,33.3728494 20.6780685,33.3728494 Z M18.6379758,33.2403586 C19.0912576,33.182784 19.5403564,33.1092551 19.9817897,33.014916 C19.9525497,33.006592 19.9247006,32.994106 19.8954503,32.9850883 C20.1287006,32.9365315 20.36056,32.883813 20.5903382,32.8255442 C20.6202788,32.8331746 20.6488182,32.844273 20.6780685,32.8519035 C21.2162885,32.7124767 21.7426703,32.5446084 22.2572242,32.352462 C22.2370303,32.3434438 22.2182273,32.3330387 22.1987339,32.3240215 C22.3533103,32.2671405 22.5064855,32.2054038 22.6589703,32.143667 C22.6791642,32.1519918 22.6986576,32.1623968 22.7188515,32.1707207 C23.3002412,31.9327918 23.86562,31.6629544 24.4108048,31.3612085 C24.3961745,31.3528847 24.3822552,31.3424796 24.3676352,31.3334614 C24.4846055,31.26895 24.6001848,31.2009706 24.7157745,31.1336846 C24.7303945,31.1427028 24.7443139,31.1524135 24.7596345,31.1614317 C25.3730564,30.8028048 25.9600097,30.4046381 26.5184236,29.9710948 C26.5072861,29.9613832 26.4961485,29.9509781 26.4850109,29.9412675 C26.5790055,29.8684323 26.6737006,29.7962905 26.7663042,29.7213741 C26.7774418,29.7303913 26.7885794,29.7407963 26.8004176,29.7505079 C27.4465618,29.2247062 28.0523182,28.6510417 28.6107321,28.0343703 C28.6009855,28.0232708 28.5933303,28.011479 28.5835836,28.0003806 C28.6622576,27.9136713 28.7374594,27.8241885 28.8140521,27.735398 C28.8230982,27.7464975 28.8314539,27.7582893 28.8405103,27.7693887 C29.5360885,26.9661192 30.1529824,26.0948702 30.6807655,25.1660468 C30.6724097,25.1521738 30.6661455,25.136913 30.65848,25.1223455 C30.7260267,25.002341 30.793563,24.881643 30.8590079,24.7595573 C30.8666733,24.7741237 30.8736279,24.7900779 30.8812933,24.8046454 C31.9612158,22.7825964 32.6240715,20.5080582 32.7480067,18.0920079 C32.7361685,17.8644861 32.7319958,17.634883 32.7299042,17.4045794 C32.7306048,17.3470061 32.7347776,17.2894327 32.7347776,17.2318594 C32.7347776,17.1839915 32.7312952,17.1368242 32.7306048,17.0889564 C32.7333867,16.8683788 32.7368691,16.6484812 32.7480067,16.4299745 C32.6240715,14.0146145 31.9612158,11.7393861 30.8812933,9.71803455 C30.8785115,9.72288727 30.87642,9.7284303 30.8736279,9.73329333 C30.8088836,9.61051212 30.7420376,9.48912182 30.6745012,9.36842182 C30.6765824,9.3649497 30.6779836,9.36009697 30.6807655,9.35662485 C30.6355042,9.27685879 30.5798061,9.20332606 30.5331539,9.12494061 C30.3333267,8.78365273 30.1223515,8.44930909 29.8981473,8.12467091 C29.8396673,8.04074242 29.7804764,7.95888485 29.7205952,7.87633697 C29.4567139,7.50869394 29.1775018,7.15283758 28.8843703,6.80877818 C28.8690497,6.79074788 28.8558206,6.77132667 28.8405103,6.75328606 C28.8398097,6.75397636 28.8391194,6.75536727 28.8384188,6.75605758 C28.7618261,6.66727636 28.6866345,6.57848485 28.6079503,6.49108424 C28.6086509,6.49038364 28.6093412,6.48969333 28.6107321,6.48830242 C28.5968127,6.47304364 28.5814921,6.45986606 28.5675624,6.44460727 C28.3203927,6.17198909 28.0620752,5.91116788 27.7967927,5.6559 C27.7577958,5.61844848 27.7181085,5.58098667 27.6784212,5.54352485 C24.7840012,2.81463333 20.8799873,1.13734121 16.5797909,1.13734121 C7.65771079,1.13734121 0.425494133,8.34317758 0.425494133,17.2318594 L0.425494133,17.2464279 L0.425494133,17.2609861 C0.425494133,26.1455085 7.67999109,33.3728494 16.5971927,33.3728494 C16.8102594,33.3728494 17.0212242,33.3652191 17.2321994,33.356895 C17.1758006,33.3451027 17.1214933,33.3263736 17.0650945,33.3138875 C17.5406515,33.3000142 18.0113352,33.2660244 18.4757442,33.2119181 C18.5307521,33.2195485 18.5829782,33.2334219 18.6379758,33.2403586 Z M20.6780685,1.14982848 C20.4657024,1.14982848 20.254037,1.15745273 20.0430618,1.16577758 C20.2561285,1.21087394 20.4684842,1.25873152 20.6780685,1.31214242 C20.888343,1.25873152 21.1000085,1.21087394 21.3130752,1.16577758 C21.1021,1.15745273 20.8911248,1.14982848 20.6780685,1.14982848 Z M22.7188515,1.28231515 C22.2648794,1.33988848 21.8164812,1.41342121 21.3750376,1.50775576 C21.8317915,1.64510545 22.2794994,1.80395758 22.7188515,1.97945939 C23.1582036,1.80395758 23.6059012,1.64510545 24.0626655,1.50775576 C23.6212218,1.41342121 23.1728236,1.33988848 22.7188515,1.28231515 Z M24.7596345,1.14982848 C24.5465782,1.14982848 24.335603,1.15745273 24.1246279,1.16577758 C24.3376945,1.21087394 24.54936,1.25873152 24.7596345,1.31214242 C24.9692188,1.25873152 25.1815745,1.21087394 25.3946412,1.16577758 C25.1836661,1.15745273 24.9726909,1.14982848 24.7596345,1.14982848 Z M26.7997273,1.28231515 C26.3464455,1.33988848 25.8973467,1.41342121 25.4566036,1.50706545 C25.9133679,1.64510545 26.3610655,1.80395758 26.8004176,1.97945939 C27.2397697,1.80395758 27.686777,1.64510545 28.1442315,1.50775576 C27.7020976,1.41342121 27.2536994,1.33988848 26.7997273,1.28231515 Z M28.8405103,1.14982848 C28.6274436,1.14982848 28.4164788,1.15745273 28.2055036,1.16577758 C28.41856,1.21087394 28.6309261,1.25873152 28.8405103,1.31214242 C29.0507848,1.25873152 29.2624503,1.21087394 29.4755067,1.16577758 C29.2645418,1.15745273 29.0535667,1.14982848 28.8405103,1.14982848 Z M30.8812933,1.28231515 C30.4273212,1.33988848 29.978923,1.41342121 29.5374794,1.50775576 C29.9942333,1.64510545 30.4419412,1.80395758 30.8812933,1.97945939 C31.3206455,1.80395758 31.768343,1.64510545 32.2251073,1.50775576 C31.7836636,1.41342121 31.3352655,1.33988848 30.8812933,1.28231515 Z M32.9220764,1.14982848 C32.70902,1.14982848 32.4980448,1.15745273 32.2870697,1.16577758 C32.5001364,1.21087394 32.7118018,1.25873152 32.9220764,1.31214242 C33.1316503,1.25873152 33.3440164,1.21087394 33.557083,1.16577758 C33.3461079,1.15745273 33.1351327,1.14982848 32.9220764,1.14982848 Z M34.9628594,1.28231515 C34.5088873,1.33988848 34.0597885,1.41342121 33.6183552,1.50775576 C34.0758097,1.64510545 34.522817,1.80395758 34.9621588,1.97945939 C35.4015109,1.80395758 35.8492188,1.64510545 36.3059727,1.50706545 C35.8645394,1.41342121 35.4161309,1.33988848 34.9628594,1.28231515 Z M37.0029521,1.14982848 C36.7898855,1.14982848 36.5789206,1.15745273 36.3679455,1.16577758 C36.5810018,1.21087394 36.7933679,1.25873152 37.0029521,1.31214242 C37.2132267,1.25873152 37.4248921,1.21087394 37.6379485,1.16577758 C37.4269836,1.15745273 37.2160085,1.14982848 37.0029521,1.14982848 Z M39.0437352,1.28231515 C38.589763,1.33988848 38.1413545,1.41342121 37.6999212,1.50775576 C38.1566752,1.64510545 38.604383,1.80395758 39.0437352,1.97945939 C39.4830873,1.80395758 39.9307848,1.64510545 40.3875491,1.50775576 C39.9461055,1.41342121 39.4977073,1.33988848 39.0437352,1.28231515 Z M41.0845182,1.14982848 C40.8714515,1.14982848 40.6604867,1.15745273 40.4495115,1.16577758 C40.6625782,1.21087394 40.8742436,1.25873152 41.0845182,1.31214242 C41.2940921,1.25873152 41.5064582,1.21087394 41.7188242,1.16577758 C41.5078491,1.15745273 41.2968842,1.14982848 41.0845182,1.14982848 Z M43.1246006,1.28231515 C42.6706285,1.33988848 42.2222303,1.41342121 41.780797,1.50706545 C42.2382412,1.64510545 42.6852588,1.80395758 43.1246006,1.97945939 C43.5639527,1.80395758 44.0116606,1.64510545 44.4684145,1.50775576 C44.0269812,1.41342121 43.5785727,1.33988848 43.1246006,1.28231515 Z M45.1653836,1.14982848 C44.9523273,1.14982848 44.7413521,1.15745273 44.5303873,1.16577758 C44.7434436,1.21087394 44.9558097,1.25873152 45.1653836,1.31214242 C45.3756685,1.25873152 45.5873339,1.21087394 45.8003903,1.16577758 C45.5894255,1.15745273 45.3784503,1.14982848 45.1653836,1.14982848 Z M43.5869285,2.1702097 C44.1293315,2.40606667 44.655023,2.67104 45.1653836,2.96099818 C45.6757545,2.67104 46.2021467,2.40606667 46.7438491,2.1702097 C46.2292952,1.97806848 45.7029133,1.81020121 45.1653836,1.67008 C44.6278642,1.81020121 44.1014824,1.97806848 43.5869285,2.1702097 Z M41.4333479,3.16077394 C42.022403,3.5159297 42.5863806,3.90854727 43.1246006,4.33169273 C43.6635212,3.90854727 44.2268085,3.5159297 44.8165539,3.16077394 C44.2713691,2.85971939 43.7066909,2.58988303 43.1246006,2.35195515 C42.5432109,2.58988303 41.9785327,2.85971939 41.4333479,3.16077394 Z M39.3250285,4.55158 C39.9516794,5.06558788 40.5393333,5.62469212 41.0845182,6.22401939 C41.6290024,5.62469212 42.2166564,5.06558788 42.8433073,4.55158 C42.2848933,4.11803879 41.69794,3.71986788 41.0845182,3.36124 C40.4710964,3.71986788 39.8834424,4.11803879 39.3250285,4.55158 Z M37.2334103,6.48830242 C37.9122873,7.26799455 38.5194345,8.11149333 39.0437352,9.00840303 C39.5680255,8.11149333 40.1744824,7.26799455 40.8540497,6.48830242 C40.2956358,5.87163515 39.6905697,5.29797273 39.0437352,4.77216788 C38.3968903,5.29797273 37.7911339,5.87163515 37.2334103,6.48830242 Z M35.1633873,9.35593455 C36.0699406,10.9985467 36.7042467,12.8104067 37.0029521,14.73118 C37.3016473,12.8104067 37.9359533,10.9985467 38.8425067,9.35593455 C38.3154242,8.42711636 37.6985303,7.55586121 37.0029521,6.75328606 C36.3080642,7.55586121 35.6904697,8.42711636 35.1633873,9.35593455 Z M37.0029521,27.7693887 C37.6985303,26.9661192 38.3154242,26.0955646 38.8425067,25.1667413 C37.9359533,23.5241364 37.3016473,21.7122661 37.0029521,19.7908024 C36.7042467,21.7122661 36.0699406,23.5241364 35.1633873,25.1667413 C35.6904697,26.0955646 36.3080642,26.9661192 37.0029521,27.7693887 Z M39.0437352,29.7505079 C39.6905697,29.2247062 40.2956358,28.6510417 40.8540497,28.0336759 C40.1744824,27.2546854 39.5680255,26.4111835 39.0437352,25.5142697 C38.5194345,26.4111835 37.9122873,27.2546854 37.2334103,28.0336759 C37.7911339,28.6510417 38.3968903,29.2247062 39.0437352,29.7505079 Z M41.0845182,31.1614317 C41.69794,30.8028048 42.2848933,30.4046381 42.8433073,29.9710948 C42.2166564,29.4563925 41.6290024,28.8979888 41.0845182,28.2986585 C40.5393333,28.8979888 39.9516794,29.4563925 39.3250285,29.9704014 C39.8834424,30.4046381 40.4710964,30.8028048 41.0845182,31.1614317 Z M41.0845182,31.5616787 C40.5741473,31.8516327 40.0477655,32.1166143 39.5053624,32.352462 C40.0199061,32.5446084 40.5462982,32.7124767 41.0845182,32.8519035 C41.6220376,32.7124767 42.1484297,32.5446084 42.6629733,32.352462 C42.1205703,32.1166143 41.5941885,31.8516327 41.0845182,31.5616787 Z M37.3517818,31.3612085 C37.8969667,31.6629544 38.4623455,31.9327918 39.0437352,32.1707207 C39.6251248,31.9327918 40.189803,31.6629544 40.7356782,31.3612085 C40.1459327,31.006743 39.5826455,30.6141265 39.0437352,30.1909882 C38.5048145,30.6141265 37.9415273,31.006743 37.3517818,31.3612085 Z M37.0029521,31.5616787 C36.4925812,31.8516327 35.9668897,32.1166143 35.4244867,32.352462 C35.9390406,32.5446084 36.4654224,32.7124767 37.0029521,32.8519035 C37.5411721,32.7124767 38.0668533,32.5446084 38.5814073,32.352462 C38.0397048,32.1166143 37.513323,31.8516327 37.0029521,31.5616787 Z M33.2709061,31.3612085 C33.8160909,31.6629544 34.3807691,31.9327918 34.9621588,32.1707207 C35.5442491,31.9327918 36.1089273,31.6629544 36.6541121,31.3612085 C36.0643667,31.006743 35.5010794,30.6141265 34.9621588,30.1909882 C34.4239388,30.6141265 33.8599612,31.006743 33.2709061,31.3612085 Z M32.9220764,31.5616787 C32.4117055,31.8516327 31.8853236,32.1166143 31.3436212,32.352462 C31.8574745,32.5446084 32.3838564,32.7124767 32.9220764,32.8519035 C33.4595958,32.7124767 33.9859879,32.5446084 34.5005315,32.352462 C33.9581388,32.1166143 33.4317467,31.8516327 32.9220764,31.5616787 Z M29.18934,31.3612085 C29.7352255,31.6629544 30.2999036,31.9327918 30.8812933,32.1707207 C31.462683,31.9327918 32.0273612,31.6629544 32.5732467,31.3612085 C31.9834909,31.006743 31.4202139,30.6141265 30.8812933,30.1909882 C30.3423727,30.6141265 29.7790855,31.006743 29.18934,31.3612085 Z M28.8405103,31.5616787 C28.3308297,31.8516327 27.8044479,32.1166143 27.2620552,32.352462 C27.7765988,32.5446084 28.3029806,32.7124767 28.8405103,32.8519035 C29.3787303,32.7124767 29.9044218,32.5446084 30.4189655,32.352462 C29.877263,32.1166143 29.3508812,31.8516327 28.8405103,31.5616787 Z M30.6,29.9710948 C29.9733491,29.4570859 29.3849945,28.8979888 28.8405103,28.2986585 C28.2960158,28.8979888 27.7083618,29.4563925 27.0817109,29.9704014 C27.6401248,30.4046381 28.2270885,30.8028048 28.8405103,31.1614317 C29.4539218,30.8028048 30.0415861,30.4046381 30.6,29.9710948 Z M32.6916079,28.0343703 C32.0127412,27.253992 31.4055836,26.4111835 30.8812933,25.5135753 C30.3569927,26.4111835 29.7498455,27.253992 29.0709788,28.0343703 C29.6286921,28.6510417 30.2344485,29.2247062 30.8812933,29.7505079 C31.5281279,29.2247062 32.1331939,28.6510417 32.6916079,28.0343703 Z M34.7616412,25.1667413 C33.8550879,23.5234358 33.2207818,21.7115758 32.9220764,19.7901121 C32.6233709,21.7115758 31.9890648,23.5234358 31.0818212,25.1660468 C31.6095939,26.0948702 32.2264982,26.9661192 32.9220764,27.7693887 C33.6169539,26.9668125 34.2345588,26.0955646 34.7616412,25.1667413 Z M32.9220764,6.75328606 C32.2264982,7.55586121 31.6095939,8.42711636 31.0818212,9.35662485 C31.9890648,10.999237 32.6233709,12.811097 32.9220764,14.7325709 C33.2207818,12.811097 33.8550879,10.9985467 34.7616412,9.35593455 C34.2345588,8.42711636 33.6169539,7.55586121 32.9220764,6.75328606 Z M30.8812933,4.77216788 C30.2344485,5.29797273 29.6286921,5.87163515 29.0709788,6.48830242 C29.7498455,7.26799455 30.3569927,8.11149333 30.8812933,9.00910364 C31.4055836,8.11149333 32.0127412,7.26799455 32.6916079,6.48830242 C32.1331939,5.87163515 31.5281279,5.29797273 30.8812933,4.77216788 Z M28.8405103,3.36124 C28.2270885,3.71986788 27.6401248,4.11803879 27.0817109,4.55158 C27.7083618,5.06558788 28.2960158,5.62469212 28.8405103,6.22401939 C29.3849945,5.62469212 29.9733491,5.06558788 30.6,4.55158 C30.0415861,4.11803879 29.4539218,3.71986788 28.8405103,3.36124 Z M28.8405103,2.96099818 C29.3508812,2.67104 29.877263,2.40606667 30.4189655,2.1702097 C29.9044218,1.97806848 29.3787303,1.81020121 28.8405103,1.67008 C28.3029806,1.81020121 27.7765988,1.97806848 27.2620552,2.1702097 C27.8044479,2.40606667 28.3308297,2.67104 28.8405103,2.96099818 Z M32.5732467,3.16077394 C32.0273612,2.85971939 31.462683,2.58988303 30.8812933,2.35195515 C30.2999036,2.58988303 29.7352255,2.85971939 29.18934,3.16077394 C29.7790855,3.5159297 30.3423727,3.90854727 30.8812933,4.33099212 C31.4202139,3.90854727 31.9834909,3.5159297 32.5732467,3.16077394 Z M32.9220764,2.96099818 C33.4317467,2.67104 33.9581388,2.40606667 34.5005315,2.1702097 C33.9859879,1.97806848 33.4595958,1.81020121 32.9220764,1.67008 C32.3838564,1.81020121 31.8574745,1.97806848 31.3436212,2.1702097 C31.8853236,2.40606667 32.4117055,2.67104 32.9220764,2.96099818 Z M36.6541121,3.16077394 C36.1089273,2.85971939 35.5442491,2.58988303 34.9621588,2.35195515 C34.3807691,2.58988303 33.8160909,2.85971939 33.2709061,3.16077394 C33.8599612,3.5159297 34.4239388,3.90854727 34.9621588,4.33169273 C35.5010794,3.90854727 36.0643667,3.5159297 36.6541121,3.16077394 Z M37.0029521,2.96099818 C37.513323,2.67104 38.0397048,2.40606667 38.5814073,2.1702097 C38.0668533,1.97806848 37.5411721,1.81020121 37.0029521,1.67008 C36.4654224,1.81020121 35.9390406,1.97806848 35.4244867,2.1702097 C35.9668897,2.40606667 36.4925812,2.67104 37.0029521,2.96099818 Z M35.2441527,4.55158 C35.8708036,5.06558788 36.4584576,5.62469212 37.0029521,6.22401939 C37.5474364,5.62469212 38.1357909,5.06558788 38.7624418,4.55158 C38.2033273,4.11803879 37.6163636,3.71986788 37.0029521,3.36124 C36.3895303,3.71986788 35.8025667,4.11803879 35.2441527,4.55158 Z M32.9220764,6.22401939 C33.4665606,5.62469212 34.0542248,5.06558788 34.6808655,4.55158 C34.1224515,4.11803879 33.5354982,3.71986788 32.9220764,3.36124 C32.3086545,3.71986788 31.7210006,4.11803879 31.1625867,4.55158 C31.7892376,5.06558788 32.3775921,5.62469212 32.9220764,6.22401939 Z M33.1518442,6.48830242 C33.8314115,7.26799455 34.4378685,8.11149333 34.9628594,9.00840303 C35.48716,8.11149333 36.0936067,7.26799455 36.7731739,6.48830242 C36.21476,5.87163515 35.6090036,5.29797273 34.9621588,4.77216788 C34.3160248,5.29797273 33.7102582,5.87163515 33.1518442,6.48830242 Z M34.6808655,29.9704014 C34.0542248,29.4563925 33.4665606,28.8979888 32.9220764,28.2986585 C32.3775921,28.8979888 31.7892376,29.4570859 31.1625867,29.9710948 C31.7210006,30.4046381 32.3086545,30.8028048 32.9220764,31.1614317 C33.5354982,30.8028048 34.1224515,30.4046381 34.6808655,29.9704014 Z M37.0029521,28.2986585 C36.4584576,28.8979888 35.8708036,29.4563925 35.2441527,29.9710948 C35.8025667,30.4046381 36.3895303,30.8028048 37.0029521,31.1614317 C37.6163636,30.8028048 38.2033273,30.4046381 38.7624418,29.9704014 C38.1357909,29.4563925 37.5474364,28.8979888 37.0029521,28.2986585 Z M34.9621588,29.7505079 C35.6090036,29.2247062 36.21476,28.6510417 36.7731739,28.0336759 C36.0936067,27.2546854 35.48716,26.4111835 34.9628594,25.5142697 C34.4378685,26.4111835 33.8314115,27.2546854 33.1518442,28.0343703 C33.7102582,28.6510417 34.3160248,29.2247062 34.9621588,29.7505079 Z M36.8288824,18.09548 C36.8149527,17.8194 36.8072976,17.5412285 36.8072976,17.2609861 C36.8072976,16.9814442 36.8149527,16.703283 36.8288824,16.427203 C36.704937,14.0125333 36.0420915,11.7386855 34.9628594,9.71803455 C33.8822364,11.7393861 33.2200812,14.0146145 33.0961461,16.4299745 C33.1100655,16.7053642 33.1170303,16.9828248 33.1170303,17.2609861 C33.1170303,17.5398479 33.1100655,17.8173188 33.0961461,18.0920079 C33.2200812,20.5080582 33.8822364,22.783297 34.9628594,24.8046454 C36.0420915,22.7839873 36.704937,20.5101394 36.8288824,18.09548 Z M39.5053624,2.1702097 C40.0477655,2.40606667 40.5741473,2.67104 41.0845182,2.96099818 C41.5941885,2.67104 42.1205703,2.40606667 42.6629733,2.1702097 C42.1484297,1.97806848 41.6220376,1.81020121 41.0845182,1.67008 C40.5462982,1.81020121 40.0199061,1.97806848 39.5053624,2.1702097 Z M40.7356782,3.16077394 C40.189803,2.85971939 39.6251248,2.58988303 39.0437352,2.35195515 C38.4623455,2.58988303 37.8969667,2.85971939 37.3517818,3.16077394 C37.9415273,3.5159297 38.5048145,3.90854727 39.0437352,4.33169273 C39.5826455,3.90854727 40.1459327,3.5159297 40.7356782,3.16077394 Z M24.7596345,2.96099818 C25.2700055,2.67104 25.795697,2.40606667 26.3380897,2.1702097 C25.8235461,1.97806848 25.2971642,1.81020121 24.7596345,1.67008 C24.2214145,1.81020121 23.695723,1.97806848 23.1811794,2.1702097 C23.7228818,2.40606667 24.2492636,2.67104 24.7596345,2.96099818 Z M26.8004176,2.35195515 C26.2183376,2.58988303 25.6536491,2.85971939 25.1084642,3.16077394 C25.69822,3.5159297 26.261497,3.90854727 26.7997273,4.33169273 C27.3386376,3.90854727 27.9019248,3.5159297 28.4916703,3.16077394 C27.9464855,2.85971939 27.3818073,2.58988303 26.8004176,2.35195515 Z M26.3380897,32.352462 C25.795697,32.1166143 25.2700055,31.8516327 24.7596345,31.5616787 C24.2492636,31.8516327 23.7228818,32.1166143 23.1811794,32.352462 C23.695723,32.5446084 24.2214145,32.7124767 24.7596345,32.8519035 C25.2971642,32.7124767 25.8235461,32.5446084 26.3380897,32.352462 Z M25.1084642,31.3612085 C25.6536491,31.6629544 26.2183376,31.9327918 26.8004176,32.1707207 C27.3818073,31.9327918 27.9464855,31.6629544 28.4916703,31.3612085 C27.9019248,31.006743 27.3386376,30.6141265 26.7997273,30.1909882 C26.261497,30.6141265 25.69822,31.006743 25.1084642,31.3612085 Z M45.1653836,31.5616787 C44.655023,31.8516327 44.1293315,32.1166143 43.5869285,32.352462 C44.1014824,32.5446084 44.6278642,32.7124767 45.1653836,32.8519035 C45.7029133,32.7124767 46.2292952,32.5446084 46.7438491,32.352462 C46.2021467,32.1166143 45.6757545,31.8516327 45.1653836,31.5616787 Z M43.1246006,32.1707207 C43.7066909,31.9327918 44.2713691,31.6629544 44.8165539,31.3612085 C44.2268085,31.006743 43.6635212,30.6141265 43.1246006,30.1909882 C42.5863806,30.6141265 42.022403,31.006743 41.4333479,31.3612085 C41.9785327,31.6629544 42.5432109,31.9327918 43.1246006,32.1707207 Z M47.206177,1.28231515 C46.7522048,1.33988848 46.3037964,1.41342121 45.862363,1.50775576 C46.319117,1.64510545 46.7668248,1.80395758 47.206177,1.97945939 C47.6455188,1.80395758 48.0925364,1.64510545 48.5499806,1.50775576 C48.1085473,1.41342121 47.6601491,1.33988848 47.206177,1.28231515 Z M49.24696,1.14982848 C49.0338933,1.14982848 48.8229285,1.15745273 48.6119533,1.16577758 C48.8243194,1.21087394 49.0366855,1.25873152 49.2462594,1.31214242 C49.4565339,1.25873152 49.6681994,1.21087394 49.8812661,1.16577758 C49.6702909,1.15745273 49.4593261,1.14982848 49.24696,1.14982848 Z M53.3278255,0.802987273 C62.4372085,0.802987273 69.8483636,8.18571636 69.8483636,17.2609861 C69.8483636,26.3362671 62.4372085,33.7196841 53.3278255,33.7196841 C52.6364303,33.7196841 51.9561624,33.6725146 51.2870424,33.5892743 C50.6179224,33.6725146 49.9383552,33.7196841 49.24696,33.7196841 C48.5555545,33.7196841 47.875297,33.6725146 47.206177,33.5892743 C46.5370467,33.6725146 45.8567891,33.7196841 45.1653836,33.7196841 C44.4739885,33.7196841 43.7937206,33.6725146 43.1246006,33.5892743 C42.4554806,33.6725146 41.775223,33.7196841 41.0845182,33.7196841 C40.3931127,33.7196841 39.7128552,33.6725146 39.0437352,33.5892743 C38.3746152,33.6725146 37.6943473,33.7196841 37.0029521,33.7196841 C36.3115467,33.7196841 35.6319794,33.6725146 34.9621588,33.5892743 C34.2930388,33.6725146 33.6134818,33.7196841 32.9220764,33.7196841 C32.2306709,33.7196841 31.5504133,33.6725146 30.8812933,33.5892743 C30.2121733,33.6725146 29.5319055,33.7196841 28.8405103,33.7196841 C28.1491048,33.7196841 27.4695376,33.6725146 26.7997273,33.5892743 C26.1306073,33.6725146 25.45104,33.7196841 24.7596345,33.7196841 C24.0682291,33.7196841 23.3879715,33.6725146 22.7188515,33.5892743 C22.0497315,33.6725146 21.3694636,33.7196841 20.6780685,33.7196841 C19.9873636,33.7196841 19.3070958,33.6725146 18.6379758,33.5892743 C17.9681655,33.6725146 17.2885982,33.7196841 16.5971927,33.7196841 C7.48781897,33.7196841 0.0773562333,26.3362671 0.0773562333,17.2609861 C0.0773562333,8.18571636 7.48781897,0.802987273 16.5971927,0.802987273 C17.2885982,0.802987273 17.9681655,0.850164848 18.6379758,0.932712727 C19.3070958,0.850164848 19.9873636,0.802987273 20.6780685,0.802987273 C21.3694636,0.802987273 22.0497315,0.850164848 22.7188515,0.932712727 C23.3879715,0.850164848 24.0682291,0.802987273 24.7596345,0.802987273 C25.45104,0.802987273 26.1306073,0.850164848 26.7997273,0.932712727 C27.4695376,0.850164848 28.1491048,0.802987273 28.8405103,0.802987273 C29.5319055,0.802987273 30.2121733,0.850164848 30.8812933,0.932712727 C31.5504133,0.850164848 32.2306709,0.802987273 32.9220764,0.802987273 C33.6134818,0.802987273 34.2930388,0.850164848 34.9621588,0.932712727 C35.6319794,0.850164848 36.3115467,0.802987273 37.0029521,0.802987273 C37.6943473,0.802987273 38.3746152,0.850164848 39.0437352,0.932712727 C39.7128552,0.850164848 40.3931127,0.802987273 41.0845182,0.802987273 C41.775223,0.802987273 42.4554806,0.850164848 43.1246006,0.932712727 C43.7937206,0.850164848 44.4739885,0.802987273 45.1653836,0.802987273 C45.8567891,0.802987273 46.5370467,0.850164848 47.206177,0.932712727 C47.875297,0.850164848 48.5555545,0.802987273 49.24696,0.802987273 C49.9383552,0.802987273 50.6179224,0.850164848 51.2870424,0.932712727 C51.9561624,0.850164848 52.6364303,0.802987273 53.3278255,0.802987273 Z" id="path-1"></path>
        <path d="M0.312872121,0.705922424 L1.97906788,0.705922424 L1.97906788,2.79247152 C2.90719576,0.895292121 4.57269091,0.397933939 6.07177152,0.350066061 L6.07177152,2.08076909 L5.90536727,2.08076909 C3.43079576,2.08076909 2.05008667,3.62210242 2.05008667,6.51470909 L2.05008667,13.4618044 L0.312872121,13.4618044 L0.312872121,0.705922424 Z" id="path-3"></path>
        <path d="M11.95338,7.22293939 C11.95338,4.82839152 10.2635182,2.12516485 6.81277576,2.12516485 C5.38471394,2.12516485 4.12375697,2.69466485 3.19561879,3.61933091 C2.31483333,4.54398667 1.76755697,5.82380848 1.76755697,7.27011697 C1.76755697,8.69283152 2.31483333,9.97334364 3.24297152,10.8979994 C4.14743333,11.7990818 5.43275697,12.3443079 6.86081879,12.3443079 C9.73991818,12.3443079 11.95338,10.1627133 11.95338,7.24652303 L11.95338,7.22293939 Z M0.125738182,0.868926667 L1.79123333,0.868926667 L1.79123333,3.52429576 C2.83843333,1.67497394 4.69469939,0.513080606 7.14629515,0.513080606 C11.4534564,0.513080606 13.7142606,3.99877091 13.7142606,7.29439091 C13.7142606,10.8501418 11.1206376,13.9799758 7.14629515,13.9799758 C4.31383758,13.9799758 2.48124788,12.3443079 1.88661879,11.0166182 L1.88661879,13.6248169 L1.88661879,18.4610799 L0.125738182,18.4610799 L0.125738182,0.868926667 Z" id="path-5"></path>
        <path d="M16.5793685,0.723149091 C25.7026709,0.723149091 33.1249739,8.14055818 33.1249739,17.2574521 C33.1249739,26.3368915 25.7026709,33.7244705 16.5793685,33.7244705 C7.43726921,33.7244705 0.000348137848,26.3368915 0.000348137848,17.2574521 C0.000348137848,8.14055818 7.43726921,0.723149091 16.5793685,0.723149091 Z M16.5793685,1.1393503 C7.65381109,1.1393503 0.417417279,8.35559273 0.417417279,17.2574521 C0.417417279,26.1586192 7.65381109,33.3082689 16.5793685,33.3082689 C25.5049248,33.3082689 32.7072067,26.1586192 32.7072067,17.2574521 C32.7072067,8.35559273 25.5049248,1.1393503 16.5793685,1.1393503 Z" id="path-7"></path>
        <path d="M17.3611638,33.7538127 L17.2241133,33.7538127 C8.11342847,33.7169694 0.712990303,26.3436534 0.712990303,17.2869394 C0.712990303,8.17003515 8.15060364,0.752636364 17.2927091,0.752636364 C26.4160115,0.752636364 33.8383042,8.17003515 33.8383042,17.2869394 C33.8383042,26.3436534 26.4531101,33.7169694 17.3611638,33.7538127 L17.3611638,33.7538127 Z M17.2927091,1.16883758 C8.36715273,1.16883758 1.13075758,8.38508 1.13075758,17.2869394 C1.13075758,26.1880992 8.36715273,33.3377498 17.2927091,33.3377498 C26.2182655,33.3377498 33.420537,26.1880992 33.420537,17.2869394 C33.420537,8.38508 26.2182655,1.16883758 17.2927091,1.16883758 Z" id="path-9"></path>
        <path d="M16.5797188,0.693672121 L53.3535212,0.723499394 C62.4768236,0.723499394 69.8991267,8.14020788 69.8991267,17.2571018 C69.8991267,26.3372387 62.4768236,33.7241236 53.3528206,33.7241236 L16.5797188,33.6949895 C7.43761745,33.6949895 0,26.3074104 0,17.2279752 C0,8.11107091 7.43761745,0.693672121 16.5797188,0.693672121 Z M16.5797188,1.10987333 C7.65346285,1.10987333 0.417765418,8.32611576 0.417765418,17.2279752 C0.417765418,26.1291381 7.65346285,33.2787879 16.5797188,33.2787879 L53.3535212,33.307922 C62.2790776,33.307922 69.4813594,26.1589653 69.4813594,17.2571018 C69.4813594,8.35524242 62.2790776,1.13970061 53.3535212,1.13970061 L16.5797188,1.10987333 Z" id="path-11"></path>
    </defs>
    <g id="Symbols" stroke="none" stroke-width="1" fill="none" fill-rule="evenodd">
        <g id="desktop-/-logo-/-black">
            <g id="russellprivett">
                <g id="Group-3">
                    <mask id="mask-2" fill="white">
                        <use xlink:href="#path-1"></use>
                    </mask>
                    <g id="Clip-2"></g>
                    <polygon id="Fill-1" fill="#3F3F40" mask="url(#mask-2)" points="-5.07415897 38.8711996 74.9998798 38.8711996 74.9998798 -4.34851861 -5.07415897 -4.34851861"></polygon>
                </g>
                <g id="Group-6" transform="translate(13.393939, 10.303030)">
                    <mask id="mask-4" fill="white">
                        <use xlink:href="#path-3"></use>
                    </mask>
                    <g id="Clip-5"></g>
                    <polygon id="Fill-4" fill="#161818" mask="url(#mask-4)" points="-4.83863994 18.6133196 11.2232898 18.6133196 11.2232898 -4.80145012 -4.83863994 -4.80145012"></polygon>
                </g>
                <g id="Group-9" transform="translate(48.424242, 10.303030)">
                    <mask id="mask-6" fill="white">
                        <use xlink:href="#path-5"></use>
                    </mask>
                    <g id="Clip-8"></g>
                    <polygon id="Fill-7" fill="#161818" mask="url(#mask-6)" points="-5.02577697 23.612595 18.8657758 23.612595 18.8657758 -4.63843771 -5.02577697 -4.63843771"></polygon>
                </g>
                <g id="Group-12">
                    <mask id="mask-8" fill="white">
                        <use xlink:href="#path-7"></use>
                    </mask>
                    <g id="Clip-11"></g>
                    <polygon id="Fill-10" fill="#161818" mask="url(#mask-8)" points="-5.15116691 38.8759853 38.276487 38.8759853 38.276487 -4.42836194 -5.15116691 -4.42836194"></polygon>
                </g>
                <g id="Group-15" transform="translate(36.060606, 0.000000)">
                    <mask id="mask-10" fill="white">
                        <use xlink:href="#path-9"></use>
                    </mask>
                    <g id="Clip-14"></g>
                    <polygon id="Fill-13" fill="#161818" mask="url(#mask-10)" points="-4.43852485 38.9054664 38.9898194 38.9054664 38.9898194 -4.39888085 -4.43852485 -4.39888085"></polygon>
                </g>
                <g id="Group-18">
                    <mask id="mask-12" fill="white">
                        <use xlink:href="#path-11"></use>
                    </mask>
                    <g id="Clip-17"></g>
                    <polygon id="Fill-16" fill="#161818" mask="url(#mask-12)" points="-5.15151515 38.8756392 75.0506418 38.8756392 75.0506418 -4.45784509 -5.15151515 -4.45784509"></polygon>
                </g>
            </g>
        </g>
    </g>
</svg>